{"title":"Tangled.Ever.After.(2012).BluRay.1080p.x264.Eng.DTS.AMX","uid":7568873,"size":371514705,"categoryP":"video","categoryS":"hd___movies","magnet":"?xt=urn:btih:d9b09b8434a8c0f27b4d40c2cbafe94f13e96107&amp;dn=Tangled.Ever.After.%282012%29.BluRay.1080p.x264.Eng.DTS.AMX&amp;tr=udp%3A%2F%2Ftracker.openbittorrent.com%3A80&amp;tr=udp%3A%2F%2Fopen.demonii.com%3A1337&amp;tr=udp%3A%2F%2Ftracker.coppersurfer.tk%3A6969&amp;tr=udp%3A%2F%2Fexodus.desync.com%3A6969","seeders":0,"leechers":0,"uploader":"Lawry1494","files":-1,"time":1345934217,"description":"General\nComplete name                            : Tangled.Ever.After.(2012).BluRay.1080p.x264.Eng.DTS.AMX.mkv\nFormat                                   : Matroska\nFormat version                           : Version 2\nFile size                                : 316 MiB\nDuration                                 : 6mn 29s\nOverall bit rate                         : 6 807 Kbps\n\nVideo\nID                                       : 1\nFormat                                   : AVC\nFormat/Info                              : Advanced Video Codec\nFormat profile                           : &lt;a class=&quot;__cf_email__&quot; href=&quot;/cdn-cgi/l/email-protection&quot; data-cfemail=&quot;c28aaba5aa828ef7ecf3&quot;&gt;[email&amp;#160;protected]&lt;/a&gt;&lt;script data-cfhash='f9e31' type=&quot;text/javascript&quot;&gt;\n/* &lt;![CDATA[ */!function(){try{var t=&quot;currentScript&quot;in document?document.currentScript:function(){for(var t=document.getElementsByTagName(&quot;script&quot;),e=t.length;e--;)if(t[e].getAttribute(&quot;data-cfhash&quot;))return t[e]}();if(t&amp;&amp;t.previousSibling){var e,r,n,i,c=t.previousSibling,a=c.getAttribute(&quot;data-cfemail&quot;);if(a){for(e=&quot;&quot;,r=parseInt(a.substr(0,2),16),n=2;a.length-n;n+=2)i=parseInt(a.substr(n,2),16)^r,e+=String.fromCharCode(i);e=document.createTextNode(e),c.parentNode.replaceChild(e,c)}t.parentNode.removeChild(t);}}catch(u){}}()/* ]]&gt; */&lt;/script&gt;\nFormat settings, CABAC                   : Yes\nFormat settings, ReFrames                : 16 frames\nCodec ID                                 : V_MPEG4/ISO/AVC\nDuration                                 : 6mn 29s\nBit rate                                 : 5 162 Kbps\nWidth                                    : 1 920 pixels\nHeight                                   : 1 056 pixels\nDisplay aspect ratio                     : 16:9\nFrame rate                               : 23.976 fps\nColor space                              : YUV\nChroma subsampling                       : 4:2:0\nBit depth                                : 8 bits\nScan type                                : Progressive\nBits/(Pixel*Frame)                       : 0.106\nStream size                              : 239 MiB (76%)\nWriting library                          : x264 core 125 r2208 d9d2288\nDefault                                  : Yes\nForced                                   : No\n\nAudio\nID                                       : 2\nFormat                                   : DTS\nFormat/Info                              : Digital Theater Systems\nCodec ID                                 : A_DTS\nDuration                                 : 6mn 29s\nBit rate mode                            : Constant\nBit rate                                 : 1 510 Kbps\nChannel(s)                               : 6 channels\nChannel positions                        : Front: L C R, Side: L R, LFE\nSampling rate                            : 48.0 KHz\nBit depth                                : 24 bits\nCompression mode                         : Lossy\nStream size                              : 70.0 MiB (22%)\nLanguage                                 : English\nDefault                                  : Yes\nForced                                   : No\n","torrent":{"xt":"urn:btih:d9b09b8434a8c0f27b4d40c2cbafe94f13e96107","amp;dn":"Tangled.Ever.After.%282012%29.BluRay.1080p.x264.Eng.DTS.AMX","amp;tr":["udp%3A%2F%2Ftracker.openbittorrent.com%3A80","udp%3A%2F%2Fopen.demonii.com%3A1337","udp%3A%2F%2Ftracker.coppersurfer.tk%3A6969","udp%3A%2F%2Fexodus.desync.com%3A6969"],"infoHash":"d9b09b8434a8c0f27b4d40c2cbafe94f13e96107","infoHashBuffer":{"type":"Buffer","data":[217,176,155,132,52,168,192,242,123,77,64,194,203,175,233,79,19,233,97,7]},"announce":[],"urlList":[]}}